<svg width="512" height="512" viewBox="0 0 512 512" xmlns="http://www.w3.org/2000/svg" role="img" aria-labelledby="title desc">
  <title id="title">Arctic Prompt — Tall Central Iceberg Peaks</title>
  <desc id="desc">Arctic-blue icon with a tall iceberg and a prompt bubble icon.</desc>

  <!-- Colors -->
  <!-- bg: #0EA5E9, water: #38BDF8, ice light: #E0F2FE,
       ice mid: #CFEFFF, ice under: #7DD3FC, fg: #0C4A6E -->

  <defs>
    <clipPath id="round">
      <rect x="0" y="0" width="512" height="512" rx="104" ry="104"></rect>
    </clipPath>
  </defs>

  <g clip-path="url(#round)">
    <!-- Background -->
    <rect x="0" y="0" width="512" height="512" fill="#0EA5E9"></rect>

    <!-- Waterline -->
    <rect x="0" y="296" width="512" height="216" fill="#38BDF8" opacity="0.45"></rect>

    <!-- === ICEBERG (same as original) === -->
    <!-- Main silhouette -->
    <path d="
      M48 320
      L100 220
      L140 250
      L180 200
      L220 150
      L256 100
      L292 150
      L332 200
      L372 180
      L420 260
      L456 320 Z" fill="#CFEFFF"></path>

    <!-- Highlight facet -->
    <path d="
      M92 320
      L140 250
      L176 270
      L220 210
      L256 140
      L292 210
      L324 248
      L360 276
      L408 320 Z" fill="#E0F2FE"></path>

    <!-- Underwater section -->
    <path d="M84 320 L256 504 L428 320 Z" fill="#7DD3FC" opacity="0.9"></path>

    <!-- Subtle waterline seam -->
    <rect x="70" y="316" width="372" height="6" rx="3" fill="#7DD3FC" opacity="0.55"></rect>

    <!-- === PROMPT ICON === -->
    <!-- Speech bubble outline -->
    <path d="
      M156 236
      H356
      Q372 236 372 252
      V310
      Q372 326 356 326
      H292
      L256 364
      L220 326
      H156
      Q140 326 140 310
      V252
      Q140 236 156 236
      Z" fill="none" stroke="#0C4A6E" stroke-width="18" stroke-linejoin="round" stroke-linecap="round"></path>

    <!-- Prompt caret ">" -->
    <path d="M210 268 L238 288 L210 308" fill="none" stroke="#0C4A6E" stroke-width="16" stroke-linecap="round" stroke-linejoin="round"></path>

    <!-- Prompt dash "-" -->
    <line x1="262" y1="288" x2="310" y2="288" stroke="#0C4A6E" stroke-width="16" stroke-linecap="round"></line>
  </g>
</svg>
